<mxfile host="app.diagrams.net" modified="2024-04-25T11:57:18.658Z" agent="Mozilla/5.0 (Macintosh; Intel Mac OS X 10_15_7) AppleWebKit/537.36 (KHTML, like Gecko) Chrome/124.0.0.0 Safari/537.36" etag="p0mTwPvHZL9ha7keo_Dd" version="24.2.3" type="device">
  <diagram name="Page-1" id="iO6yeFNaC-f0ZwFkrQ_c">
    <mxGraphModel dx="1434" dy="820" grid="1" gridSize="10" guides="1" tooltips="1" connect="1" arrows="1" fold="1" page="1" pageScale="1" pageWidth="827" pageHeight="1169" math="0" shadow="0">
      <root>
        <mxCell id="0" />
        <mxCell id="1" parent="0" />
        <mxCell id="SenxdkYkSzi3-evLHyQp-7" style="edgeStyle=orthogonalEdgeStyle;rounded=0;orthogonalLoop=1;jettySize=auto;html=1;exitX=0.5;exitY=0.5;exitDx=0;exitDy=0;exitPerimeter=0;entryX=0;entryY=0.5;entryDx=0;entryDy=0;endArrow=none;endFill=0;" edge="1" parent="1" source="SenxdkYkSzi3-evLHyQp-1" target="SenxdkYkSzi3-evLHyQp-4">
          <mxGeometry relative="1" as="geometry" />
        </mxCell>
        <mxCell id="SenxdkYkSzi3-evLHyQp-1" value="User&lt;div&gt;&lt;br&gt;&lt;/div&gt;" style="shape=umlActor;verticalLabelPosition=bottom;verticalAlign=top;html=1;outlineConnect=0;" vertex="1" parent="1">
          <mxGeometry x="190" y="280" width="30" height="60" as="geometry" />
        </mxCell>
        <mxCell id="SenxdkYkSzi3-evLHyQp-8" style="edgeStyle=orthogonalEdgeStyle;rounded=0;orthogonalLoop=1;jettySize=auto;html=1;entryX=0;entryY=0.5;entryDx=0;entryDy=0;endArrow=none;endFill=0;" edge="1" parent="1" source="SenxdkYkSzi3-evLHyQp-4" target="SenxdkYkSzi3-evLHyQp-6">
          <mxGeometry relative="1" as="geometry" />
        </mxCell>
        <mxCell id="SenxdkYkSzi3-evLHyQp-15" style="edgeStyle=orthogonalEdgeStyle;rounded=0;orthogonalLoop=1;jettySize=auto;html=1;exitX=0.5;exitY=1;exitDx=0;exitDy=0;" edge="1" parent="1" source="SenxdkYkSzi3-evLHyQp-4" target="SenxdkYkSzi3-evLHyQp-12">
          <mxGeometry relative="1" as="geometry" />
        </mxCell>
        <mxCell id="SenxdkYkSzi3-evLHyQp-4" value="Client&lt;div&gt;(Vue.js)&lt;/div&gt;" style="rounded=0;whiteSpace=wrap;html=1;" vertex="1" parent="1">
          <mxGeometry x="300" y="280" width="70" height="60" as="geometry" />
        </mxCell>
        <mxCell id="SenxdkYkSzi3-evLHyQp-5" value="Regression model" style="sketch=0;outlineConnect=0;fontColor=#232F3E;gradientColor=none;fillColor=#01A88D;strokeColor=none;dashed=0;verticalLabelPosition=bottom;verticalAlign=top;align=center;html=1;fontSize=12;fontStyle=0;aspect=fixed;pointerEvents=1;shape=mxgraph.aws4.sagemaker_model;" vertex="1" parent="1">
          <mxGeometry x="550" y="271" width="78" height="78" as="geometry" />
        </mxCell>
        <mxCell id="SenxdkYkSzi3-evLHyQp-9" style="edgeStyle=orthogonalEdgeStyle;rounded=0;orthogonalLoop=1;jettySize=auto;html=1;exitX=1;exitY=0.5;exitDx=0;exitDy=0;strokeColor=default;endArrow=none;endFill=0;" edge="1" parent="1" source="SenxdkYkSzi3-evLHyQp-6" target="SenxdkYkSzi3-evLHyQp-5">
          <mxGeometry relative="1" as="geometry" />
        </mxCell>
        <mxCell id="SenxdkYkSzi3-evLHyQp-6" value="Backend&lt;div&gt;(Flask)&lt;/div&gt;" style="rounded=0;whiteSpace=wrap;html=1;" vertex="1" parent="1">
          <mxGeometry x="430" y="280" width="70" height="60" as="geometry" />
        </mxCell>
        <mxCell id="SenxdkYkSzi3-evLHyQp-12" value="autoscoot24.com" style="sketch=0;outlineConnect=0;fontColor=#232F3E;gradientColor=none;fillColor=#232F3D;strokeColor=none;dashed=0;verticalLabelPosition=bottom;verticalAlign=top;align=center;html=1;fontSize=12;fontStyle=0;aspect=fixed;pointerEvents=1;shape=mxgraph.aws4.traditional_server;" vertex="1" parent="1">
          <mxGeometry x="442.5" y="380" width="45" height="78" as="geometry" />
        </mxCell>
      </root>
    </mxGraphModel>
  </diagram>
</mxfile>
